# Blender v2.81 (sub 16) OBJ File: ''
# www.blender.org
mtllib cube.mtl
o Cube_Cube.001
v -0.794141 -0.138830 0.299589
v -0.498483 0.675968 -0.185117
v -0.325870 -0.705806 -0.367876
v -0.030212 0.108992 -0.852581
v 0.030212 -0.108992 0.852581
v 0.325870 0.705806 0.367876
v 0.498483 -0.675968 0.185117
v 0.794141 0.138830 -0.299589
vt 0.625000 0.000000
vt 0.375000 0.250000
vt 0.375000 0.000000
vt 0.625000 0.250000
vt 0.375000 0.500000
vt 0.625000 0.500000
vt 0.375000 0.750000
vt 0.625000 0.750000
vt 0.375000 1.000000
vt 0.125000 0.750000
vt 0.125000 0.500000
vt 0.875000 0.500000
vt 0.625000 1.000000
vt 0.875000 0.750000
vn -0.8301 -0.0300 -0.5568
vn 0.4715 -0.5709 -0.6721
vn 0.8301 0.0300 0.5568
vn -0.4715 0.5709 0.6721
vn -0.2977 -0.8205 0.4881
vn 0.2977 0.8205 -0.4881
usemtl None
s off
f 2/1/1 3/2/1 1/3/1
f 4/4/2 7/5/2 3/2/2
f 8/6/3 5/7/3 7/5/3
f 6/8/4 1/9/4 5/7/4
f 7/5/5 1/10/5 3/11/5
f 4/12/6 6/8/6 8/6/6
f 2/1/1 4/4/1 3/2/1
f 4/4/2 8/6/2 7/5/2
f 8/6/3 6/8/3 5/7/3
f 6/8/4 2/13/4 1/9/4
f 7/5/5 5/7/5 1/10/5
f 4/12/6 2/14/6 6/8/6
